<?xml version="1.0" standalone="no"?>
<!DOCTYPE svg PUBLIC "-//W3C//DTD SVG 20010904//EN"
 "http://www.w3.org/TR/2001/REC-SVG-20010904/DTD/svg10.dtd">
<svg version="1.0" xmlns="http://www.w3.org/2000/svg"
 width="1654.000000pt" height="1599.000000pt" viewBox="0 0 1654.000000 1599.000000"
 preserveAspectRatio="xMidYMid meet">

<g transform="translate(0.000000,1599.000000) scale(0.100000,-0.100000)"
fill="#000000" stroke="none">
<path d="M8359 13573 c-310 -328 -460 -700 -461 -1148 -2 -381 96 -754 308
-1177 114 -227 237 -420 489 -763 313 -428 852 -1190 1435 -2030 532 -767 589
-860 664 -1085 61 -186 92 -390 84 -562 l-5 -98 45 61 c223 308 403 678 481
994 70 281 68 597 -4 863 -65 240 -159 410 -556 1002 -293 438 -535 767 -1074
1460 -555 713 -684 894 -859 1198 -241 419 -417 885 -466 1232 -7 47 -16 91
-19 98 -5 9 -24 -5 -62 -45z"/>
<path d="M7529 12132 c-234 -242 -383 -530 -441 -852 -28 -154 -30 -434 -4
-600 72 -466 297 -969 652 -1460 50 -69 170 -233 266 -365 312 -429 1032
-1454 1552 -2210 318 -461 405 -633 461 -902 23 -112 38 -300 30 -387 -4 -50
-3 -76 3 -72 6 3 41 52 80 108 271 402 426 769 478 1134 22 157 15 416 -15
556 -46 214 -125 397 -276 638 -371 592 -731 1096 -1400 1955 -171 220 -361
465 -421 545 -489 649 -779 1257 -883 1849 -11 62 -22 115 -24 117 -2 2 -28
-22 -58 -54z"/>
<path d="M6674 10667 c-592 -627 -588 -1555 11 -2553 94 -157 167 -263 345
-504 367 -497 1557 -2194 1860 -2650 161 -243 241 -422 289 -645 26 -117 41
-302 34 -402 -3 -40 -3 -73 0 -73 10 0 200 290 262 400 315 561 394 1105 230
1596 -64 192 -186 406 -510 889 -302 450 -555 796 -1084 1475 -421 542 -568
737 -682 910 -347 524 -570 1045 -648 1514 -11 65 -22 121 -24 123 -2 2 -40
-34 -83 -80z"/>
<path d="M5849 9238 c-36 -40 -88 -102 -116 -138 -359 -464 -429 -1067 -201
-1745 120 -357 318 -712 636 -1143 359 -485 1431 -2011 1850 -2631 266 -395
348 -621 361 -1000 l6 -184 71 104 c422 618 578 1186 468 1715 -37 184 -125
391 -249 590 -403 645 -728 1098 -1456 2034 -485 623 -591 769 -759 1049 -274
457 -454 922 -520 1349 -7 39 -15 72 -19 72 -4 0 -37 -33 -72 -72z"/>
</g>
</svg>
